<svg xmlns="http://www.w3.org/2000/svg" width="197.348" height="21.999" viewBox="0 0 197.348 21.999">
  <g id="Group_58169" data-name="Group 58169" transform="translate(16821.563 11305.999)">
    <path id="Path_27939" data-name="Path 27939" d="M16789.6,9105.183a2.8,2.8,0,0,1-.84-1.291,6.1,6.1,0,0,1-4.316,1.862,4.4,4.4,0,0,1-3.7-1.609,5.283,5.283,0,0,1-.8-4.286l1.447-8.063h4.219l-1.408,7.853a2.5,2.5,0,0,0,.275,1.843,1.654,1.654,0,0,0,1.465.685,2.589,2.589,0,0,0,2.186-1.038,2.738,2.738,0,0,0,.6-1.3l1.436-8.038h4.176l-1.684,9.542q-.161.732.369.733a.731.731,0,0,0,.441-.136l.254.159-.031,2.782-.277.307a3.59,3.59,0,0,1-1.979.571A2.892,2.892,0,0,1,16789.6,9105.183Zm-23.674-1.05a5.017,5.017,0,0,1-.93-4.458l1.428-7.88h4.219l-1.469,8.2a1.862,1.862,0,0,0,.352,1.573,1.843,1.843,0,0,0,1.5.606,2.966,2.966,0,0,0,2.623-1.625,9.037,9.037,0,0,0,.967-4.617,11.07,11.07,0,0,0-.4-3.831l.217-.307h3.98a15.948,15.948,0,0,1,.385,3.766,11.5,11.5,0,0,1-2.238,7.427,7.6,7.6,0,0,1-6.262,2.767A5.61,5.61,0,0,1,16765.93,9104.133Zm-14.574-.295a6.016,6.016,0,0,1-1.678-4.869,7.6,7.6,0,0,1,3.859-6.337,8.3,8.3,0,0,1,4.309-1.17,5.657,5.657,0,0,1,5.963,7.12,4.508,4.508,0,0,1-.262.958h-9.838a2.634,2.634,0,0,0,.8,2.3,3.341,3.341,0,0,0,2.322.8,5.4,5.4,0,0,0,3.74-1.5h.295l1.533,1.811-.053.319a8.388,8.388,0,0,1-6.105,2.487A6.5,6.5,0,0,1,16751.355,9103.838Zm6.111-9.4a3.339,3.339,0,0,0-2.133.708,3.953,3.953,0,0,0-1.221,1.929h5.893a2.562,2.562,0,0,0-.494-1.743,2.341,2.341,0,0,0-2.02-.894Zm-14.635,9.729a5.963,5.963,0,0,1-4.035,1.584,5.512,5.512,0,0,1-4.27-1.85,6.585,6.585,0,0,1-1.693-4.67,7.82,7.82,0,0,1,2.119-5.483,6.837,6.837,0,0,1,5.271-2.289,5.153,5.153,0,0,1,4.027,1.665l1.092-5.962,3.916-.335.3.2-2.594,14.308q-.135.732.385.733a.817.817,0,0,0,.441-.136l.266.159-.057,2.782-.236.307a3.948,3.948,0,0,1-2.021.571A2.894,2.894,0,0,1,16742.832,9104.17Zm-4.834-8.011a4.156,4.156,0,0,0-1,2.81,3.35,3.35,0,0,0,.826,2.341,2.766,2.766,0,0,0,2.145.892,3.274,3.274,0,0,0,2.582-1.146,4.159,4.159,0,0,0,.982-2.8,3.363,3.363,0,0,0-.8-2.342,2.737,2.737,0,0,0-2.166-.9A3.232,3.232,0,0,0,16738,9096.159Zm-27.795,7.813a6.645,6.645,0,0,1-4.424,1.781,5.553,5.553,0,0,1-4.285-1.85,6.6,6.6,0,0,1-1.684-4.67,7.815,7.815,0,0,1,2.113-5.483,6.882,6.882,0,0,1,5.266-2.289,5,5,0,0,1,4.674,2.489l.369-2.156h3.41l-1.691,9.542c-.1.488.016.733.361.733a.714.714,0,0,0,.436-.136l.27.159-.027,2.782-.266.307a3.772,3.772,0,0,1-1.969.571A2.393,2.393,0,0,1,16710.2,9103.973Zm-5.219-7.813a4.1,4.1,0,0,0-1,2.81,3.323,3.323,0,0,0,.826,2.341,2.746,2.746,0,0,0,2.137.892,3.277,3.277,0,0,0,2.586-1.146,4.149,4.149,0,0,0,.982-2.8,3.388,3.388,0,0,0-.795-2.342,2.79,2.79,0,0,0-2.174-.9A3.217,3.217,0,0,0,16704.984,9096.159Zm-11.041,8.863a6.6,6.6,0,0,1-1.674-2.463c-.029-.063-.115-.3-.258-.7-.1-.3-.2-.559-.279-.771a7.469,7.469,0,0,0-.6-1.345q-.65-1.055-1.211-.971h-1.687l-1.2,6.655h-4.242l3.18-17.716h7.611a6.443,6.443,0,0,1,4.273,1.254,4.31,4.31,0,0,1,1.477,3.485,5.787,5.787,0,0,1-1.248,3.79,6.7,6.7,0,0,1-3.449,2.159c.34.159.674.714,1.014,1.663a8.209,8.209,0,0,0,.307.984,1.839,1.839,0,0,0,.422.652.963.963,0,0,0,.746.344,1.883,1.883,0,0,0,.916-.236l.229.131.16,2.835-.133.294a3.676,3.676,0,0,1-2.076.69A3.47,3.47,0,0,1,16693.943,9105.022Zm-5.189-9.167h3.357a2.771,2.771,0,0,0,1.994-.728,2.589,2.589,0,0,0,.758-1.948,1.912,1.912,0,0,0-.561-1.444,2.045,2.045,0,0,0-1.49-.538h-3.207Zm37.2,9.568,1.355-7.774a2.478,2.478,0,0,0-.283-1.908,1.884,1.884,0,0,0-1.645-.7,2.7,2.7,0,0,0-2.184.971,3.889,3.889,0,0,0-.705,1.636l-1.4,7.774h-4.191l1.719-9.545c.059-.488-.061-.729-.363-.729a.736.736,0,0,0-.451.129l-.279-.154.053-2.783.275-.3a3.956,3.956,0,0,1,2.178-.574q2.364,0,2.646,2.077a5.409,5.409,0,0,1,4.5-2.077,4.315,4.315,0,0,1,3.658,1.665,5.244,5.244,0,0,1,.789,4.256l-1.453,8.041Zm-79.873-1.021a3.29,3.29,0,0,1-.51-2.82l1.824-10.167h4.207l-1.7,9.543c-.1.486.016.73.354.73a.755.755,0,0,0,.439-.134l.266.159-.051,2.783-.24.306a3.8,3.8,0,0,1-1.994.571A3.213,3.213,0,0,1,16646.076,9104.4Zm-8.076-.92c-.268-.493-.807-1.565-1.611-3.206h-1.662l-.854,4.763h-4.215l3.3-18.254,3.928-.335.289.2-1.012,5.6a6.019,6.019,0,0,1,3.609-1.171,5.234,5.234,0,0,1,3.4,1.052,3.386,3.386,0,0,1,1.309,2.741,4.812,4.812,0,0,1-1,3.03,5.428,5.428,0,0,1-2.748,1.829l.7,1.2a1.233,1.233,0,0,0,1.871.519l.191.135v2.939l-.191.307a3.579,3.579,0,0,1-2.021.546A3.354,3.354,0,0,1,16638,9103.482Zm-1.633-8.647a3.008,3.008,0,0,0-1.018,1.891l-.184,1.169h2.635a2.72,2.72,0,0,0,1.836-.608,2,2,0,0,0,.707-1.562,1.417,1.417,0,0,0-.557-1.169,2.317,2.317,0,0,0-1.471-.44A2.833,2.833,0,0,0,16636.367,9094.835Zm-12.842,8.754a6.608,6.608,0,0,1-4.418,1.785,5.555,5.555,0,0,1-4.283-1.85,6.6,6.6,0,0,1-1.693-4.671,7.808,7.808,0,0,1,2.123-5.483,6.881,6.881,0,0,1,5.264-2.289,4.992,4.992,0,0,1,4.672,2.491l.377-2.157h3.4l-1.689,9.543c-.109.486.012.73.357.73a.727.727,0,0,0,.438-.134l.264.159-.023,2.783-.266.306a3.733,3.733,0,0,1-1.969.571A2.4,2.4,0,0,1,16623.525,9103.589Zm-5.211-7.812a4.126,4.126,0,0,0-1,2.81,3.365,3.365,0,0,0,.822,2.342,2.766,2.766,0,0,0,2.145.893,3.277,3.277,0,0,0,2.586-1.146,4.151,4.151,0,0,0,.982-2.808,3.368,3.368,0,0,0-.8-2.341,2.781,2.781,0,0,0-2.17-.894A3.22,3.22,0,0,0,16618.314,9095.777Zm52.24,9.262,1.3-7.33a3.458,3.458,0,0,0-.111-1.851c-.146-.795-.713-1.2-1.689-1.2a2.555,2.555,0,0,0-1.83.718,3.483,3.483,0,0,0-.98,1.97l-1.355,7.688h-4.191l1.277-7.33a3.248,3.248,0,0,0-.109-1.821,1.5,1.5,0,0,0-1.686-1.225,2.53,2.53,0,0,0-2.264,1.225,3.93,3.93,0,0,0-.523,1.463l-1.367,7.688h-4.217l1.717-9.541c.109-.486-.01-.73-.361-.73a.728.728,0,0,0-.451.133l-.277-.159.053-2.78.279-.3a3.922,3.922,0,0,1,2.168-.575,2.352,2.352,0,0,1,2.646,2.132,5.41,5.41,0,0,1,1.893-1.552,5.5,5.5,0,0,1,2.525-.58,4.027,4.027,0,0,1,4.063,2.329,5.614,5.614,0,0,1,1.98-1.676,5.877,5.877,0,0,1,2.756-.653,4.23,4.23,0,0,1,3.646,1.65,5.261,5.261,0,0,1,.746,4.22l-1.439,8.088Zm-73.555,0,3.18-17.71h7.438a5.49,5.49,0,0,1,3.646,1.118,3.632,3.632,0,0,1,1.316,2.914,4.445,4.445,0,0,1-2.967,4.339,3.908,3.908,0,0,1,2.477,3.751,4.886,4.886,0,0,1-1.916,4.073,8.112,8.112,0,0,1-5.135,1.515Zm4.764-3.1h3.244a3.137,3.137,0,0,0,2.184-.731,2.466,2.466,0,0,0,.814-1.94,1.787,1.787,0,0,0-.611-1.42,2.508,2.508,0,0,0-1.682-.527h-3.143Zm1.3-7.275h2.646a2.785,2.785,0,0,0,1.973-.678,2.365,2.365,0,0,0,.732-1.812,1.578,1.578,0,0,0-.561-1.277,2.312,2.312,0,0,0-1.518-.468h-2.531Z" transform="translate(-33418.563 -20389.754)" fill="#240b36"/>
    <path id="Path_27940" data-name="Path 27940" d="M16642.418,9085.138c.969-.466,1.344-.643,1.932-.466,1.3.389,1.328,1.987,1.328,1.987s1.412-4.116,3.363-2.1-3.666,5.541-3.666,5.541S16638.959,9086.93,16642.418,9085.138Z" transform="translate(-33414.125 -20390)" fill="#ff385c"/>
  </g>
</svg>
