<svg xmlns="http://www.w3.org/2000/svg" xmlns:xlink="http://www.w3.org/1999/xlink" width="64.001" height="64" viewBox="0 0 64.001 64">
  <defs>
    <clipPath id="clip-path">
      <circle id="Ellipse_941" data-name="Ellipse 941" cx="32" cy="32" r="32" transform="translate(0)" fill="#ffeaec"/>
    </clipPath>
  </defs>
  <g id="Group_59526" data-name="Group 59526" transform="translate(18072 6541)">
    <g id="Mask_Group_201" data-name="Mask Group 201" transform="translate(-18072 -6541)" clip-path="url(#clip-path)">
      <g id="Office_-37_icon-icons.com_73971" transform="translate(0)">
        <g id="Group_59498" data-name="Group 59498" transform="translate(0 0)">
          <circle id="Ellipse_938" data-name="Ellipse 938" cx="32" cy="32" r="32" fill="#ffeaec"/>
        </g>
        <g id="Group_59509" data-name="Group 59509" transform="translate(9.723 25.947)">
          <g id="Group_59508" data-name="Group 59508" transform="translate(0 0)">
            <g id="Group_59499" data-name="Group 59499" transform="translate(0.792 0.792)">
              <path id="Path_29106" data-name="Path 29106" d="M52.869,83.208H29.7a9.888,9.888,0,0,1-9.9-9.9V13.9A9.888,9.888,0,0,1,29.7,4H52.869a9.888,9.888,0,0,1,9.9,9.9V73.307A9.93,9.93,0,0,1,52.869,83.208Z" transform="translate(-19.8 -4)" fill="#ff385c"/>
            </g>
            <circle id="Ellipse_939" data-name="Ellipse 939" cx="3.366" cy="3.366" r="3.366" transform="translate(18.878 70.627)" fill="#593055" opacity="0.2"/>
            <g id="Group_59500" data-name="Group 59500" transform="translate(18.086 69.835)">
              <path id="Path_29107" data-name="Path 29107" d="M50.158,116.917a4.158,4.158,0,1,1,4.158-4.158A4.141,4.141,0,0,1,50.158,116.917Zm0-6.667a2.508,2.508,0,1,0,2.508,2.508A2.507,2.507,0,0,0,50.158,110.25Z" transform="translate(-46 -108.6)" fill="#62355c"/>
            </g>
            <g id="Group_59501" data-name="Group 59501" transform="translate(0 0)">
              <path id="Path_29108" data-name="Path 29108" d="M52.462,83.592H29.293A10.691,10.691,0,0,1,18.6,72.9V13.493A10.691,10.691,0,0,1,29.293,2.8H52.462A10.691,10.691,0,0,1,63.155,13.493V72.9A10.691,10.691,0,0,1,52.462,83.592ZM29.293,4.384a9.127,9.127,0,0,0-9.109,9.109V72.9a9.127,9.127,0,0,0,9.109,9.109H52.462A9.127,9.127,0,0,0,61.571,72.9V13.493a9.127,9.127,0,0,0-9.109-9.109Z" transform="translate(-18.6 -2.8)" fill="#62355c"/>
            </g>
            <g id="Group_59502" data-name="Group 59502" transform="translate(4.092 13.201)">
              <path id="Path_29109" data-name="Path 29109" d="M26.714,22.8H59.19A1.916,1.916,0,0,1,61.1,24.714V75.276A1.916,1.916,0,0,1,59.19,77.19H26.714A1.916,1.916,0,0,1,24.8,75.276V24.714A2.006,2.006,0,0,1,26.714,22.8Z" transform="translate(-24.8 -22.8)" fill="#fff"/>
            </g>
            <g id="Group_59503" data-name="Group 59503" transform="translate(3.3 12.409)">
              <path id="Path_29110" data-name="Path 29110" d="M58.782,77.64H26.306A2.718,2.718,0,0,1,23.6,74.934V24.306A2.718,2.718,0,0,1,26.306,21.6H58.782a2.718,2.718,0,0,1,2.706,2.706V74.868A2.733,2.733,0,0,1,58.782,77.64ZM26.306,23.25a1.043,1.043,0,0,0-1.056,1.056V74.868a1.043,1.043,0,0,0,1.056,1.056H58.782a1.043,1.043,0,0,0,1.056-1.056V24.306a1.043,1.043,0,0,0-1.056-1.056Z" transform="translate(-23.6 -21.6)" fill="#62355c"/>
            </g>
            <g id="Group_59504" data-name="Group 59504" transform="translate(24.027 64.093)">
              <path id="Path_29111" data-name="Path 29111" d="M55,99.9" transform="translate(-55 -99.9)" fill="none" stroke="#404243" stroke-linecap="round" stroke-linejoin="round" stroke-miterlimit="10" strokeWidth="2.5"/>
            </g>
            <g id="Group_59505" data-name="Group 59505" transform="translate(15.71 6.007)">
              <circle id="Ellipse_940" data-name="Ellipse 940" cx="0.99" cy="0.99" r="0.99" fill="#62355c"/>
            </g>
            <g id="Group_59506" data-name="Group 59506" transform="translate(19.274 6.271)">
              <path id="Path_29112" data-name="Path 29112" d="M56.843,13.884H48.592a.8.8,0,0,1-.792-.792.852.852,0,0,1,.792-.792h8.317a.8.8,0,0,1,.792.792A.864.864,0,0,1,56.843,13.884Z" transform="translate(-47.8 -12.3)" fill="#62355c"/>
            </g>
            <g id="Group_59507" data-name="Group 59507" transform="translate(24.027 51.881)">
              <path id="Path_29113" data-name="Path 29113" d="M55,81.4" transform="translate(-55 -81.4)" fill="none" stroke="#404243" stroke-linecap="round" stroke-linejoin="round" stroke-miterlimit="10" strokeWidth="2.5"/>
            </g>
            <g id="Group_59524" data-name="Group 59524" transform="translate(13.522 21.622)">
              <path id="Line_428" data-name="Line 428" d="M15.884-1H-.375A.7.7,0,0,0-1-.238.7.7,0,0,0-.375.524H15.884a.7.7,0,0,0,.625-.762A.7.7,0,0,0,15.884-1Z" transform="translate(1 1)" fill="#62355c"/>
              <path id="Line_429" data-name="Line 429" d="M12.859-1H-.4A.7.7,0,0,0-1-.238.7.7,0,0,0-.4.524H12.859a.7.7,0,0,0,.6-.762A.7.7,0,0,0,12.859-1Z" transform="translate(2.524 4.834)" fill="#62355c"/>
              <path id="Line_430" data-name="Line 430" d="M8.34-1H-.451C-.754-1-1-.659-1-.238s.246.762.549.762H8.34c.3,0,.549-.341.549-.762S8.644-1,8.34-1Z" transform="translate(4.81 8.669)" fill="#62355c"/>
            </g>
          </g>
        </g>
      </g>
    </g>
    <g id="Group_59523" data-name="Group 59523" transform="translate(-18031.246 -6541)">
      <g id="Group_57037" data-name="Group 57037" transform="translate(0 0)">
        <path id="Path_27049" data-name="Path 27049" d="M24.741,13.871A10.871,10.871,0,1,1,13.871,3,10.871,10.871,0,0,1,24.741,13.871Z" transform="translate(-2.247 -2.247)" fill="#37a3d2"/>
        <path id="Path_27049_-_Outline" data-name="Path 27049 - Outline" d="M13.624,2a11.624,11.624,0,0,1,8.219,19.843A11.624,11.624,0,1,1,5.4,5.4,11.547,11.547,0,0,1,13.624,2Zm0,21.741A10.118,10.118,0,1,0,3.506,13.624,10.129,10.129,0,0,0,13.624,23.741Z" transform="translate(-2 -2)" fill="#62355c"/>
      </g>
      <path id="Path_28998" data-name="Path 28998" d="M-2.448-25.83l.08,3.147-2.907-1.04-.64,1.947,2.96.933L-4.822-18.39l1.653,1.2,1.76-2.533L.378-17.19l1.653-1.2L.112-20.9l2.96-.907L2.405-23.75l-2.88,1.067.08-3.147Z" transform="translate(13.227 33.134)" fill="#fff"/>
    </g>
  </g>
</svg>
