<svg xmlns="http://www.w3.org/2000/svg" width="52.391" height="50" viewBox="0 0 52.391 50">
  <g id="_306711" data-name="306711" transform="translate(-0.197 1221.915)">
    <path id="Path_2808" data-name="Path 2808" d="M21.743-1221.853c-.09.037-.606.188-1.146.344a9.35,9.35,0,0,0-1.883.663,2.558,2.558,0,0,0-1.441,1.617l-.1.34-.479.3c-.262.168-.749.483-1.085.7-.43.283-.581.364-.52.283a6.367,6.367,0,0,0,.9-1.67c.131-.381.581-2.068.549-2.068a15.6,15.6,0,0,0-2,1.286,9.067,9.067,0,0,0-1.281,1.29,4.706,4.706,0,0,0-.708,1.38,2.537,2.537,0,0,0,0,1.367l.09.266-.119.1c-.5.422-1.216,1.1-1.67,1.572l-.544.569.2-.389a7.039,7.039,0,0,0,.59-4.041c-.041-.438-.086-.819-.1-.847s-.176.135-.393.409c-1.822,2.26-2.166,2.895-2.317,4.266-.1.929.123,2.182.393,2.223.053.008.192-.082.381-.238l.3-.254L9-1211.9a23.369,23.369,0,0,0-1.711,2.641c-.057.114-.111.2-.123.188a1,1,0,0,1,.025-.242,7.518,7.518,0,0,0,.082-1.646,10.4,10.4,0,0,0-.725-2.976c-.127-.393-.242-.733-.258-.749-.033-.037-.09.139-.573,1.65-.766,2.4-.909,3.361-.651,4.409a4.873,4.873,0,0,0,.581,1.376l.295.524.119-.135c.066-.074.106-.106.094-.074s-.094.245-.184.475c-.217.532-.45,1.216-.643,1.859-.082.282-.16.54-.172.573s-.066-.123-.115-.348a8.922,8.922,0,0,0-1.183-2.78c-.209-.319-.508-.786-.659-1.036-.274-.458-.405-.622-.454-.573a5.538,5.538,0,0,0-.061.774c-.02.414-.053,1.007-.078,1.322a18.384,18.384,0,0,0,.02,2.682,3.445,3.445,0,0,0,1.462,2.747,1.724,1.724,0,0,0,.348.184c.111.029.111,0,.033.7-.074.684-.143,1.781-.143,2.28v.369l-.229-.426a15.385,15.385,0,0,0-1.674-2.489,12.844,12.844,0,0,0-1.728-1.4c-.045,0-.057.029-.041.09.053.25.287,1.441.4,2.059.475,2.583,1.191,3.926,2.575,4.835a5.935,5.935,0,0,0,.888.487s.045.249.094.553c.111.7.295,1.58.446,2.174a1.948,1.948,0,0,1,.09.422c-.016-.021-.115-.147-.217-.282-.459-.606-.811-.88-3.206-2.485a11.261,11.261,0,0,0-1.527-.9c-.016.049,1.507,3.128,1.855,3.75a6,6,0,0,0,1.146,1.556,5.655,5.655,0,0,0,1.584,1.142,5.209,5.209,0,0,0,1.355.434c.135,0,.192.016.192.053a27.207,27.207,0,0,0,1.576,3c.066.1.029.078-.2-.11a9.221,9.221,0,0,0-1.719-1.036,9.805,9.805,0,0,0-2.268-.819c-.405-.1-.937-.258-1.179-.344-.688-.246-.7-.2-.123.5.229.278.635.782.9,1.122a11.317,11.317,0,0,0,3.242,2.866,8.283,8.283,0,0,0,1.633.487,3.389,3.389,0,0,0,.909.045,3.641,3.641,0,0,0,.6-.061c.09-.037.131,0,.426.336a23.961,23.961,0,0,0,2.55,2.493c.151.123.033.073-.655-.27a3.713,3.713,0,0,0-1.31-.508,30.583,30.583,0,0,0-5.4-.508,23.79,23.79,0,0,0,3.345,2.354,10.889,10.889,0,0,0,2.632.909,6.369,6.369,0,0,0,2.415-.127c.123-.037.377-.131.565-.209.336-.143.336-.147.266-.229-.045-.053,0-.033.127.053a26.362,26.362,0,0,0,3.431,1.842.889.889,0,0,1,.225.11,3.729,3.729,0,0,1-.442-.057,15.464,15.464,0,0,0-2.759-.016c-.409.049-1,.156-2.559.45-.463.086-1.138.213-1.5.278a2.784,2.784,0,0,0-.655.151c.02.057,3.185.995,3.734,1.105a8.814,8.814,0,0,0,2.26.176,4.743,4.743,0,0,0,3.365-1.109l.385-.336.549.156c.569.16,1.638.4,2.178.487l.3.049-.3.078a16.775,16.775,0,0,0-3.537,1.552,15.867,15.867,0,0,0-2.395,1.273,22.214,22.214,0,0,0,3.439-.131,11.359,11.359,0,0,0,3.459-1,4.48,4.48,0,0,0,1.531-1.22l.262-.315h1.609l.569.536a5.316,5.316,0,0,0,3.009,1.625,12.078,12.078,0,0,0,3.619.524c1.74.115,1.8.11,1.543-.106a9.869,9.869,0,0,0-1.5-.757,5.541,5.541,0,0,1-1.105-.573,12.5,12.5,0,0,0-3.332-1.384l-.377-.1.585-.11a22.717,22.717,0,0,0,2.407-.594c.282-.09.471-.135.422-.1-.139.094-.119.229.061.389a5.427,5.427,0,0,0,2.514,1.122,11.76,11.76,0,0,0,2.739-.016,32.939,32.939,0,0,0,3.734-1.1c.147-.078.139-.164-.02-.217-.2-.061-1.674-.352-2.591-.512a14.64,14.64,0,0,0-3.488-.352,12.924,12.924,0,0,0-1.809.307c-.209.057-.389.1-.405.1s.258-.119.606-.258a22.421,22.421,0,0,0,8.626-6.354c.168-.2.172-.2.164-.082-.012.2.139.246.77.246a5.512,5.512,0,0,0,1.8-.315,5.091,5.091,0,0,0,1.535-.827,8.264,8.264,0,0,0,2.415-2.379,7.5,7.5,0,0,1,1.22-1.388c.143-.119.156-.2.025-.221a4.938,4.938,0,0,0-.712.172c-.348.1-.9.25-1.212.328a8.134,8.134,0,0,0-1.764.639,10.773,10.773,0,0,0-2.481,1.6c-.319.291-.328.3-.209.119a24.506,24.506,0,0,0,1.814-3.324.918.918,0,0,1,.119-.237.3.3,0,0,1,.1.065c.094.09.352.041.921-.168a6.022,6.022,0,0,0,2.788-2.043,39.652,39.652,0,0,0,2.051-3.918c.2-.463.246-.61.172-.61s-1.9,1.146-2.915,1.846a6.78,6.78,0,0,0-1.94,1.818c-.106.156-.2.291-.2.295s.053-.213.127-.491a26.051,26.051,0,0,0,.606-2.939c.02-.176.029-.184.135-.168a1,1,0,0,0,.43-.147,4.828,4.828,0,0,0,2.252-2.28,10.9,10.9,0,0,0,.925-3.234c.115-.61.246-1.232.291-1.384.09-.291.094-.442.016-.467s-.479.336-1.245,1.118a9.2,9.2,0,0,0-2.46,3.369l-.115.311,0-.553a26.592,26.592,0,0,0-.233-3.193l-.025-.1.1.09c.09.078.111.082.25.037a2.452,2.452,0,0,0,.823-.643c.8-.856,1.138-2.4,1.019-4.589-.049-.93-.168-2.473-.2-2.567a22.445,22.445,0,0,0-1.859,3.115,3.736,3.736,0,0,0-.413,2.08l0,.757-.1-.389c-.176-.712-.348-1.318-.536-1.9-.2-.626-.729-1.994-.917-2.366-.2-.4-.131-.323.127.139.274.487.36.565.512.467a5.022,5.022,0,0,0,1.032-2.55,3.473,3.473,0,0,0-.025-.614,25.2,25.2,0,0,0-.913-3.382c-.262-.782-.307-.888-.385-.888a6.837,6.837,0,0,0-.86,2.088,14.67,14.67,0,0,0,0,3.549.588.588,0,0,1,.045.176,4.851,4.851,0,0,1-.246-.438,24.148,24.148,0,0,0-2.833-4.143,29.61,29.61,0,0,0-2.342-2.358c-.348-.295-.373-.328-.287-.348.168-.041.217-.217.233-.794a2.324,2.324,0,0,0-.364-1.568,9.908,9.908,0,0,0-2.043-2.166,10.624,10.624,0,0,0-1.462-.917c-.094,0-.061.278.111.929a5.921,5.921,0,0,0,1.384,2.911c.213.25.221.266.09.18-.323-.209-.594-.364-1.433-.823l-.88-.479-.033-.254a3.042,3.042,0,0,0-1.875-2.194,27.957,27.957,0,0,0-2.9-.909c-.139-.024-.164-.016-.164.045a11.587,11.587,0,0,0,1.781,2.3,4.073,4.073,0,0,0,2.133,1.183l.426.094.917.63c.5.344.913.63.9.639a1.052,1.052,0,0,1-.209-.033,5.7,5.7,0,0,0-1.67-.021,14.9,14.9,0,0,0-2.8.786c-.528.254-.377.315,1.179.483.528.053,1.179.131,1.449.168a14.718,14.718,0,0,0,3.725-.049c.2-.065.18-.078.954.573.684.569.9.774.806.741a9.566,9.566,0,0,0-3.484-.389c-.7.037-.917.086-.917.2,0,.09.094.152.512.328.18.073.835.372,1.453.659a9.591,9.591,0,0,0,4,1.208l.426.029.156.188c.413.5,1.314,1.724,1.314,1.785a.646.646,0,0,1-.192-.119,8.437,8.437,0,0,0-1.531-.774c-1.281-.487-2.739-.819-2.739-.626a2.205,2.205,0,0,0,.422.426c.655.569,2.567,2.145,2.923,2.407a10.746,10.746,0,0,0,2.424,1.392l.262.074.143.311a13.889,13.889,0,0,1,.815,2.17c-.544-.589-.712-.761-.983-1.007a5.516,5.516,0,0,0-.655-.52,10.686,10.686,0,0,0-2.632-1.331c-.041.045.1.258.418.626a13.708,13.708,0,0,1,1.6,2.313,8.274,8.274,0,0,0,.532.815,10.389,10.389,0,0,0,2.28,2.08,1.016,1.016,0,0,1,.287.217c.041.135.229,1.539.287,2.17s.078,1.281.033,1.085a5.962,5.962,0,0,0-.909-2c-.328-.409-2.608-2.718-2.649-2.681a35.61,35.61,0,0,0,1.294,4.106,10.692,10.692,0,0,0,1.986,3.25l.254.27-.033.328a26.127,26.127,0,0,1-.434,2.722c-.016.066-.045-.049-.078-.323A6.9,6.9,0,0,0,45.9-1195.9a8.1,8.1,0,0,0-1.31-1.978c-.074.025-.074.393,0,1.564.1,1.756.221,3.2.311,3.807a7.361,7.361,0,0,0,1.114,2.673l.192.262-.229.557a17.577,17.577,0,0,1-1.269,2.538c.012-.041.045-.278.07-.528a11.43,11.43,0,0,0-.086-2.493c-.328-1.781-.77-3.013-.995-2.788a2.119,2.119,0,0,0-.094.516,27.475,27.475,0,0,1-.565,2.735,10.941,10.941,0,0,0-.381,2.5,4.649,4.649,0,0,0,.3,2.006l.176.528-.213.27c-.278.356-.983,1.183-1.294,1.523l-.246.266.1-.43a9.657,9.657,0,0,0,.233-2.641c0-.659-.029-1.433-.057-1.74l-.057-.553-.393.758c-.565,1.085-.987,1.842-1.29,2.3a6.31,6.31,0,0,0-1.105,3.991l-.029.622-.594.418a17.1,17.1,0,0,1-1.719,1.081.807.807,0,0,1,.127-.213,9.206,9.206,0,0,0,1.2-2.751,16.063,16.063,0,0,0,.3-1.732c-.02-.061-2.2,2.051-2.825,2.735-1.261,1.388-1.65,2.051-1.809,3.083l-.049.307-.594.2c-.516.168-1.838.536-1.838.508,0,0,.131-.119.295-.25a9.063,9.063,0,0,0,1.973-2.579,3.17,3.17,0,0,0,.262-.86,5.06,5.06,0,0,0-.565.254c-.594.282-1,.45-1.9.79a4.736,4.736,0,0,0-2.26,1.445,3.022,3.022,0,0,0-.9,1.523l.02.131-.246.029c-.139.012-.741.024-1.343.024a4,4,0,0,1-1.134-.053,4.229,4.229,0,0,1-.213-.471,3.833,3.833,0,0,0-1.114-1.588,7.709,7.709,0,0,0-2.452-1.228c-.393-.147-1.007-.413-1.359-.59a3.851,3.851,0,0,0-.647-.286,4.526,4.526,0,0,0,.336.921,10.2,10.2,0,0,0,2.17,2.673c.111.082.184.156.164.164a21.057,21.057,0,0,1-2.4-.659l-.164-.057-.029-.3a4.4,4.4,0,0,0-1.408-2.661c-.479-.528-3.177-3.279-3.2-3.263a11.094,11.094,0,0,0,.311,1.72,8.189,8.189,0,0,0,1.285,3.013l.16.217-.2-.115a11.038,11.038,0,0,1-2.284-1.556c0-.045.029-.237.061-.438a7.529,7.529,0,0,0-1.212-4.286c-.413-.671-.786-1.33-1.191-2.112a7.772,7.772,0,0,0-.422-.753,18.648,18.648,0,0,0-.086,2.416,6.5,6.5,0,0,0,.373,2.964l.123.25-.209-.2c-.319-.307-1.134-1.224-1.507-1.691l-.328-.409.119-.237a6.358,6.358,0,0,0,.434-2.125,12.867,12.867,0,0,0-.479-3.3,20.214,20.214,0,0,1-.532-2.7c0-.18-.057-.291-.123-.225a5.933,5.933,0,0,0-.487,1.22c-.147.524-.373,1.547-.5,2.3a6.223,6.223,0,0,0,.02,2.235c.061.332.119.635.135.675a7.943,7.943,0,0,1-.721-1.257c-.348-.688-.569-1.167-.839-1.838l-.176-.426.139-.106a5.357,5.357,0,0,0,1.265-2.571,46.066,46.066,0,0,0,.389-5.51c-.111-.11-.7.708-1.4,1.961a6.751,6.751,0,0,0-1.1,3.4l-.025.573-.094-.389a23.872,23.872,0,0,1-.5-2.825c-.025-.237-.053-.483-.061-.548-.016-.1-.012-.11.041-.066.09.074.18-.02.737-.757a15.772,15.772,0,0,0,1.29-1.928c.123-.262.557-1.429.647-1.736.02-.078.119-.381.209-.671.246-.766.647-2.1.692-2.309.025-.094.025-.172.008-.172a24.7,24.7,0,0,0-2.342,2.293A6.3,6.3,0,0,0,5.2-1198.2a1.414,1.414,0,0,1-.086.3c-.029-.024.066-1.666.123-2.219a7.438,7.438,0,0,1,.3-1.781,2.269,2.269,0,0,0,.774-.463,12.6,12.6,0,0,0,2.984-3.447c.332-.5.815-1.179,1.073-1.519a4.911,4.911,0,0,0,.463-.684c0-.09-.131-.045-.643.213a19.2,19.2,0,0,0-2.817,1.748,7.535,7.535,0,0,0-1.036,1.179,1.264,1.264,0,0,1-.172.221,25.508,25.508,0,0,1,.925-2.472l.184-.41.237-.049a9.439,9.439,0,0,0,2.379-1.265,15.02,15.02,0,0,0,1.74-1.363c.295-.262.774-.667,1.064-.909.639-.52.766-.643.749-.724-.02-.1-.418-.073-1.036.074a9.29,9.29,0,0,0-3.312,1.433l-.405.291a15.547,15.547,0,0,1,1.543-2.17c.106-.119.115-.123.5-.123a8.532,8.532,0,0,0,3.6-.95c.385-.18,1.081-.5,1.552-.712s.88-.405.909-.43c.1-.082.066-.188-.074-.241a12.582,12.582,0,0,0-3.144.016,7.33,7.33,0,0,0-1.261.332l-.151.061.2-.184c.287-.262,1.056-.909,1.351-1.134l.246-.193.328.094a9.864,9.864,0,0,0,3.725.025c1.363-.168,2.108-.246,2.391-.25.258,0,.5-.069.528-.151a6.866,6.866,0,0,0-2.227-.844c-.246-.057-.626-.123-.847-.152a9.258,9.258,0,0,0-2.055.061,1.657,1.657,0,0,1-.254.049,2.617,2.617,0,0,1,.266-.217l.9-.683a4.039,4.039,0,0,1,.663-.451,2.144,2.144,0,0,0,.467-.024,4.158,4.158,0,0,0,2.661-1.494c1.019-1.023,1.687-1.949,1.49-2.072C21.935-1221.926,21.944-1221.926,21.743-1221.853Z" transform="translate(0 0)" fill="#7d7d7d"/>
    <path id="Path_2809" data-name="Path 2809" d="M1016.924-1148.947c.008.3.029.958.041,1.453a10.861,10.861,0,0,0,.188,2.141,5.5,5.5,0,0,0,.68,1.437,5.568,5.568,0,0,0,1.515,1.478c.311,0,.508-1.879.295-2.845a6.141,6.141,0,0,0-1.257-2.436c-.262-.336-1.138-1.4-1.371-1.654l-.115-.127Z" transform="translate(-975.081 -69.45)" fill="#7d7d7d"/>
    <path id="Path_2810" data-name="Path 2810" d="M946.662-220.749a22.945,22.945,0,0,0-4.221.5,7.891,7.891,0,0,0-3.144,1.588c-.393.311-.524.528-.434.7a3.728,3.728,0,0,0,2.37.516,8.414,8.414,0,0,0,2.669-.716,24.218,24.218,0,0,0,3.811-2.489.085.085,0,0,0-.033-.1A5.033,5.033,0,0,0,946.662-220.749Z" transform="translate(-900.213 -960.161)" fill="#7d7d7d"/>
  </g>
</svg>
